<?xml version="1.0" encoding="utf-8"?>
<!-- Generator: Adobe Illustrator 15.1.0, SVG Export Plug-In . SVG Version: 6.00 Build 0)  -->
<!DOCTYPE svg PUBLIC "-//W3C//DTD SVG 1.1//EN" "http://www.w3.org/Graphics/SVG/1.1/DTD/svg11.dtd">
<svg version="1.1" id="Vrstva_1" xmlns="http://www.w3.org/2000/svg" xmlns:xlink="http://www.w3.org/1999/xlink" x="0px" y="0px"
	 width="486px" height="157px" viewBox="126.5 177.5 486 157" enable-background="new 126.5 177.5 486 157" xml:space="preserve">
<g id="patch_2">
	<g>
		<defs>
			<rect id="SVGID_1_" x="90" y="106.56" width="558" height="223.2"/>
		</defs>
		<clipPath id="SVGID_2_">
			<use xlink:href="#SVGID_1_"  overflow="visible"/>
		</clipPath>
		<path clip-path="url(#SVGID_2_)" fill="#FFA500" stroke="#FFA500" d="M145.8,229.32c2.96,0,5.799-1.176,7.892-3.269
			s3.269-4.932,3.269-7.892s-1.176-5.799-3.269-7.892S148.76,207,145.8,207c-2.959,0-5.798,1.176-7.891,3.269
			s-3.269,4.932-3.269,7.892s1.176,5.799,3.269,7.892S142.84,229.32,145.8,229.32z"/>
	</g>
</g>
<g id="patch_3">
	<g>
		<defs>
			<rect id="SVGID_3_" x="90" y="106.56" width="558" height="223.2"/>
		</defs>
		<clipPath id="SVGID_4_">
			<use xlink:href="#SVGID_3_"  overflow="visible"/>
		</clipPath>
		<path clip-path="url(#SVGID_4_)" fill="#FFA500" stroke="#FFA500" d="M257.4,229.32c2.96,0,5.799-1.176,7.892-3.269
			s3.269-4.932,3.269-7.892s-1.176-5.799-3.269-7.892S260.36,207,257.4,207c-2.959,0-5.798,1.176-7.891,3.269
			s-3.269,4.932-3.269,7.892s1.176,5.799,3.269,7.892S254.44,229.32,257.4,229.32z"/>
	</g>
</g>
<g id="patch_4">
	<g>
		<defs>
			<rect id="SVGID_5_" x="90" y="106.56" width="558" height="223.2"/>
		</defs>
		<clipPath id="SVGID_6_">
			<use xlink:href="#SVGID_5_"  overflow="visible"/>
		</clipPath>
		<path clip-path="url(#SVGID_6_)" fill="#FFA500" stroke="#FFA500" d="M369,229.32c2.96,0,5.799-1.176,7.892-3.269
			s3.269-4.932,3.269-7.892s-1.176-5.799-3.269-7.892S371.96,207,369,207s-5.799,1.176-7.892,3.269s-3.269,4.932-3.269,7.892
			s1.176,5.799,3.269,7.892S366.04,229.32,369,229.32z"/>
	</g>
</g>
<g id="patch_5">
	<g>
		<defs>
			<rect id="SVGID_7_" x="90" y="106.56" width="558" height="223.2"/>
		</defs>
		<clipPath id="SVGID_8_">
			<use xlink:href="#SVGID_7_"  overflow="visible"/>
		</clipPath>
		<path clip-path="url(#SVGID_8_)" fill="#FFA500" stroke="#FFA500" d="M480.6,229.32c2.96,0,5.799-1.176,7.892-3.269
			s3.269-4.932,3.269-7.892s-1.176-5.799-3.269-7.892S483.56,207,480.6,207c-2.959,0-5.798,1.176-7.891,3.269
			s-3.269,4.932-3.269,7.892s1.176,5.799,3.269,7.892S477.641,229.32,480.6,229.32z"/>
	</g>
</g>
<g id="patch_6">
	<g>
		<defs>
			<rect id="SVGID_9_" x="90" y="106.56" width="558" height="223.2"/>
		</defs>
		<clipPath id="SVGID_10_">
			<use xlink:href="#SVGID_9_"  overflow="visible"/>
		</clipPath>
		<path clip-path="url(#SVGID_10_)" fill="#FFA500" stroke="#FFA500" d="M592.2,229.32c2.959,0,5.799-1.176,7.891-3.269
			c2.094-2.093,3.27-4.932,3.27-7.892s-1.176-5.799-3.27-7.892c-2.092-2.093-4.932-3.269-7.891-3.269
			c-2.96,0-5.799,1.176-7.892,3.269s-3.269,4.932-3.269,7.892s1.176,5.799,3.269,7.892S589.24,229.32,592.2,229.32z"/>
	</g>
</g>
<g>
	<polygon fill="none" points="88.513,102.847 115.363,110.56 140.723,102.56 166.083,110.56 191.443,102.56 216.804,110.56 
		242.166,102.56 267.53,110.56 292.893,102.56 318.256,110.56 343.618,102.56 368.981,110.56 394.345,102.56 419.709,110.56 
		445.068,102.56 470.431,110.56 495.793,102.56 521.159,110.56 546.525,102.56 571.892,110.56 597.259,102.56 622.629,110.56 
		649.485,102.846 644,116.705 652,126.848 644,136.988 652,147.13 644,157.271 652,167.415 644,177.556 652,187.7 644,197.846 
		652,207.99 644,218.135 652,228.281 644,238.428 652,248.574 644,258.72 652,268.864 644,279.009 652,289.155 644,299.305 
		652,309.453 644,319.606 649.486,333.474 622.637,325.76 597.276,333.76 571.917,325.76 546.557,333.76 521.195,325.76 
		495.834,333.76 470.47,325.76 445.107,333.76 419.744,325.76 394.382,333.76 369.019,325.76 343.655,333.76 318.292,325.76 
		292.932,333.76 267.57,325.76 242.207,333.76 216.841,325.76 191.475,333.76 166.108,325.76 140.741,333.76 115.371,325.76 
		88.515,333.474 94,319.615 86,309.472 94,299.333 86,289.191 94,279.051 86,268.906 94,258.764 86,248.621 94,238.474 86,228.33 
		94,218.185 86,208.04 94,197.892 86,187.747 94,177.6 86,167.456 94,157.312 86,147.166 94,137.015 86,126.868 93.992,116.467 	"/>
</g>
<g>
	<polyline fill="none" stroke="#FFA500" stroke-width="1.5" stroke-linecap="round" stroke-linejoin="round" points="
		147.799,214.16 152.69,222.16 157.582,214.16 162.473,222.16 167.364,214.16 172.254,222.16 177.146,214.16 182.037,222.16 
		186.928,214.16 191.819,222.16 196.71,214.16 201.601,222.16 206.492,214.16 211.383,222.16 216.274,214.16 221.166,222.16 
		226.057,214.16 230.948,222.16 235.839,214.16 240.73,222.16 245.621,214.16 250.512,222.16 255.403,214.16 	"/>
</g>
<rect x="90" y="106.56" fill="none" width="558" height="223.2"/>
<g>
	<polyline fill="none" stroke="#FFA500" stroke-width="1.5" stroke-linecap="round" stroke-linejoin="round" points="
		259.399,214.16 264.291,222.16 269.182,214.16 274.073,222.16 278.963,214.16 283.854,222.16 288.746,214.16 293.637,222.16 
		298.528,214.16 303.419,222.16 308.31,214.16 313.201,222.16 318.092,214.16 322.983,222.16 327.874,214.16 332.765,222.16 
		337.656,214.16 342.547,222.16 347.438,214.16 352.33,222.16 357.221,214.16 362.111,222.16 367.003,214.16 	"/>
</g>
<rect x="90" y="106.56" fill="none" width="558" height="223.2"/>
<g>
	<polyline fill="none" stroke="#FFA500" stroke-width="1.5" stroke-linecap="round" stroke-linejoin="round" points="
		370.999,214.16 375.891,222.16 380.781,214.16 385.672,222.16 390.563,214.16 395.455,222.16 400.346,214.16 405.236,222.16 
		410.128,214.16 415.02,222.16 419.91,214.16 424.801,222.16 429.692,214.16 434.584,222.16 439.475,214.16 444.365,222.16 
		449.257,214.16 454.148,222.16 459.039,214.16 463.93,222.16 468.821,214.16 473.713,222.16 478.604,214.16 	"/>
</g>
<rect x="90" y="106.56" fill="none" width="558" height="223.2"/>
<g>
	<polyline fill="none" stroke="#FFA500" stroke-width="1.5" stroke-linecap="round" stroke-linejoin="round" points="482.6,214.16 
		487.49,222.16 492.382,214.16 497.272,222.16 502.164,214.16 507.055,222.16 511.945,214.16 516.837,222.16 521.728,214.16 
		526.619,222.16 531.51,214.16 536.401,222.16 541.292,214.16 546.184,222.16 551.074,214.16 555.966,222.16 560.856,214.16 
		565.748,222.16 570.639,214.16 575.529,222.16 580.421,214.16 585.313,222.16 590.203,214.16 	"/>
</g>
<rect x="90" y="106.56" fill="none" width="558" height="223.2"/>
<g>
	<g>
		
			<line fill="none" stroke="#FFFFFF" stroke-width="1.5" stroke-linecap="round" stroke-linejoin="round" x1="146.55" y1="273.96" x2="256.65" y2="273.96"/>
		<g>
			<rect x="145.8" y="269.085" fill="#FFFFFF" width="1.5" height="9.75"/>
		</g>
		<g>
			<rect x="255.9" y="269.085" fill="#FFFFFF" width="1.5" height="9.75"/>
		</g>
	</g>
</g>
<rect x="90" y="106.56" fill="none" width="558" height="223.2"/>
<g>
	<g>
		
			<line fill="none" stroke="#FFFFFF" stroke-width="1.5" stroke-linecap="square" stroke-linejoin="round" x1="258.15" y1="273.96" x2="368.25" y2="273.96"/>
		<g>
			<rect x="257.4" y="269.085" fill="#FFFFFF" width="1.5" height="9.75"/>
		</g>
		<g>
			<rect x="367.5" y="269.085" fill="#FFFFFF" width="1.5" height="9.75"/>
		</g>
	</g>
</g>
<rect x="90" y="106.56" fill="none" width="558" height="223.2"/>
<g>
	<g>
		
			<line fill="none" stroke="#FFFFFF" stroke-width="1.5" stroke-linecap="square" stroke-linejoin="round" x1="369.75" y1="273.96" x2="479.85" y2="273.96"/>
		<g>
			<rect x="369" y="269.085" fill="#FFFFFF" width="1.5" height="9.75"/>
		</g>
		<g>
			<rect x="479.1" y="269.085" fill="#FFFFFF" width="1.5" height="9.75"/>
		</g>
	</g>
</g>
<rect x="90" y="106.56" fill="none" width="558" height="223.2"/>
<g>
	<line fill="#FFFFFF" x1="480.6" y1="273.96" x2="592.2" y2="273.96"/>
	<g>
		
			<line fill="none" stroke="#FFFFFF" stroke-width="1.5" stroke-linecap="square" stroke-linejoin="round" x1="481.35" y1="273.96" x2="591.45" y2="273.96"/>
		<g>
			<rect x="480.6" y="269.085" fill="#FFFFFF" width="1.5" height="9.75"/>
		</g>
		<g>
			<rect x="590.7" y="269.085" fill="#FFFFFF" width="1.5" height="9.75"/>
		</g>
	</g>
</g>
<g id="text_1">
	<g transform="translate(139.955625 240.48) scale(0.12 -0.12)">
		<g>
			<path id="DejaVuSans-6d" fill="#FFFFFF" d="M52.001,44.188c2.25,4.045,4.936,7.023,8.061,8.936
				c3.125,1.921,6.803,2.873,11.031,2.873c5.697,0,10.095-1.994,13.188-5.981c3.092-3.979,4.643-9.644,4.643-17V-0.002H79.89v32.723
				c0,5.241-0.932,9.123-2.795,11.654c-1.855,2.539-4.683,3.809-8.484,3.809c-4.659,0-8.341-1.546-11.047-4.639
				c-2.698-3.084-4.049-7.292-4.049-12.638V-0.002h-9.029v32.723c0,5.265-0.928,9.163-2.783,11.686
				c-1.855,2.523-4.72,3.776-8.594,3.776c-4.594,0-8.244-1.546-10.954-4.655c-2.698-3.101-4.045-7.308-4.045-12.622V-0.002H9.077
				v54.687h9.033v-8.496c2.051,3.353,4.508,5.827,7.373,7.422s6.266,2.384,10.205,2.384c3.979,0,7.357-1.009,10.14-3.027
				C48.608,50.958,50.667,48.029,52.001,44.188z"/>
		</g>
	</g>
</g>
<g id="text_2">
	<g transform="translate(251.555625 240.48) scale(0.12 -0.12)">
		<g>
			<path id="DejaVuSans-6d_1_" fill="#FFFFFF" d="M51.998,44.188c2.25,4.045,4.94,7.023,8.065,8.936
				c3.125,1.921,6.803,2.873,11.031,2.873c5.697,0,10.095-1.994,13.188-5.981c3.092-3.979,4.639-9.644,4.639-17V-0.002h-9.029
				v32.723c0,5.241-0.932,9.123-2.799,11.654c-1.851,2.539-4.679,3.809-8.484,3.809c-4.655,0-8.337-1.546-11.047-4.639
				c-2.698-3.084-4.045-7.292-4.045-12.638V-0.002h-9.033v32.723c0,5.265-0.924,9.163-2.779,11.686
				c-1.855,2.523-4.72,3.776-8.594,3.776c-4.594,0-8.244-1.546-10.954-4.655c-2.698-3.101-4.049-7.308-4.049-12.622V-0.002H9.079
				v54.687h9.029v-8.496c2.055,3.353,4.513,5.827,7.377,7.422s6.266,2.384,10.201,2.384c3.979,0,7.361-1.009,10.144-3.027
				C48.609,50.958,50.668,48.029,51.998,44.188z"/>
		</g>
	</g>
</g>
<g id="text_3">
	<g transform="translate(363.155625 240.48) scale(0.12 -0.12)">
		<g>
			<path id="DejaVuSans-6d_2_" fill="#FFFFFF" d="M51.999,44.188c2.254,4.045,4.94,7.023,8.065,8.936
				c3.125,1.921,6.803,2.873,11.027,2.873c5.705,0,10.099-1.994,13.192-5.981c3.092-3.979,4.639-9.644,4.639-17V-0.002h-9.033
				v32.723c0,5.241-0.928,9.123-2.791,11.654c-1.855,2.539-4.688,3.809-8.488,3.809c-4.655,0-8.341-1.546-11.043-4.639
				c-2.702-3.084-4.053-7.292-4.053-12.638V-0.002h-9.025v32.723c0,5.265-0.928,9.163-2.783,11.686
				c-1.855,2.523-4.72,3.776-8.594,3.776c-4.598,0-8.244-1.546-10.954-4.655c-2.702-3.101-4.045-7.308-4.045-12.622V-0.002H9.079
				v54.687h9.033v-8.496c2.051,3.353,4.508,5.827,7.373,7.422s6.266,2.384,10.205,2.384c3.979,0,7.357-1.009,10.14-3.027
				C48.614,50.958,50.664,48.029,51.999,44.188z"/>
		</g>
	</g>
</g>
<g id="text_4">
	<g transform="translate(474.755625 240.48) scale(0.12 -0.12)">
		<g>
			<path id="DejaVuSans-6d_3_" fill="#FFFFFF" d="M51.996,44.188c2.254,4.045,4.94,7.023,8.065,8.936
				c3.125,1.921,6.803,2.873,11.035,2.873c5.697,0,10.091-1.994,13.184-5.981c3.092-3.979,4.639-9.644,4.639-17V-0.002h-9.025
				v32.723c0,5.241-0.936,9.123-2.799,11.654c-1.855,2.539-4.679,3.809-8.488,3.809c-4.655,0-8.333-1.546-11.043-4.639
				c-2.702-3.084-4.045-7.292-4.045-12.638V-0.002h-9.033v32.723c0,5.265-0.928,9.163-2.783,11.686
				c-1.855,2.523-4.72,3.776-8.594,3.776c-4.59,0-8.244-1.546-10.954-4.655c-2.694-3.101-4.045-7.308-4.045-12.622V-0.002H9.076
				v54.687h9.033v-8.496c2.051,3.353,4.508,5.827,7.373,7.422s6.266,2.384,10.205,2.384c3.979,0,7.357-1.009,10.14-3.027
				C48.611,50.958,50.67,48.029,51.996,44.188z"/>
		</g>
	</g>
</g>
<g id="text_5">
	<g transform="translate(586.355625 240.48) scale(0.12 -0.12)">
		<g>
			<path id="DejaVuSans-6d_4_" fill="#FFFFFF" d="M52.001,44.188c2.246,4.045,4.94,7.023,8.065,8.936
				c3.125,1.921,6.803,2.873,11.027,2.873c5.697,0,10.099-1.994,13.192-5.981c3.092-3.979,4.639-9.644,4.639-17V-0.002H79.89v32.723
				c0,5.241-0.928,9.123-2.799,11.654c-1.847,2.539-4.679,3.809-8.48,3.809c-4.655,0-8.341-1.546-11.051-4.639
				c-2.694-3.084-4.045-7.292-4.045-12.638V-0.002h-9.033v32.723c0,5.265-0.92,9.163-2.775,11.686
				c-1.855,2.523-4.72,3.776-8.594,3.776c-4.598,0-8.244-1.546-10.954-4.655c-2.702-3.101-4.053-7.308-4.053-12.622V-0.002H9.081
				v54.687h9.025v-8.496c2.059,3.353,4.517,5.827,7.381,7.422s6.266,2.384,10.197,2.384c3.979,0,7.365-1.009,10.148-3.027
				C48.608,50.958,50.667,48.029,52.001,44.188z"/>
		</g>
	</g>
</g>
<g id="text_6">
	<g transform="translate(198.125625 201.42) scale(0.12 -0.12)">
		<g>
			<path id="DejaVuSans-6b" fill="#FFFFFF" d="M9.078,75.987h9.033V31.106L44.922,54.69h11.471l-29-25.578l30.233-29.11H45.906
				L18.111,26.703V0.003H9.078V75.987z"/>
		</g>
	</g>
</g>
<g id="text_7">
	<g transform="translate(309.725625 201.42) scale(0.12 -0.12)">
		<g>
			<path id="DejaVuSans-6b_1_" fill="#FFFFFF" d="M9.083,75.987h9.025V31.106L44.923,54.69h11.466L27.394,29.112l30.233-29.11
				H45.908L18.108,26.703V0.003H9.083V75.987z"/>
		</g>
	</g>
</g>
<g id="text_8">
	<g transform="translate(421.325625 201.42) scale(0.12 -0.12)">
		<g>
			<path id="DejaVuSans-6b_2_" fill="#FFFFFF" d="M9.08,75.987h9.033V31.106L44.92,54.69h11.475L27.391,29.112l30.233-29.11H45.905
				L18.113,26.703V0.003H9.08V75.987z"/>
		</g>
	</g>
</g>
<g id="text_9">
	<g transform="translate(532.925625 201.42) scale(0.12 -0.12)">
		<g>
			<path id="DejaVuSans-6b_3_" fill="#FFFFFF" d="M9.077,75.987h9.033V31.106L44.925,54.69h11.466L27.396,29.112l30.233-29.11H45.91
				L18.11,26.703V0.003H9.077V75.987z"/>
		</g>
	</g>
</g>
<g id="text_10">
	<g transform="translate(197.923125 296.28) scale(0.12 -0.12)">
		<g>
			<path id="DejaVuSans-61" fill="#FFFFFF" d="M34.285,27.482c-7.263,0-12.292-0.83-15.096-2.482
				c-2.804-1.66-4.203-4.492-4.203-8.504c0-3.182,1.054-5.713,3.158-7.593c2.104-1.864,4.956-2.791,8.561-2.791
				c4.989,0,8.988,1.766,12,5.298c3.011,3.524,4.517,8.219,4.517,14.071v2.002H34.285z M52.205,31.201V0h-8.984v8.293
				c-2.051-3.312-4.61-5.754-7.67-7.34c-3.064-1.579-6.807-2.376-11.235-2.376c-5.595,0-10.05,1.579-13.363,4.72
				c-3.3,3.149-4.952,7.357-4.952,12.622c0,6.152,2.059,10.783,6.173,13.908c4.126,3.125,10.27,4.687,18.437,4.687h12.61v0.895
				c0,4.134-1.359,7.332-4.077,9.595c-2.718,2.254-6.539,3.385-11.454,3.385c-3.125,0-6.173-0.374-9.139-1.123
				c-2.958-0.749-5.802-1.872-8.533-3.377v8.317c3.28,1.27,6.47,2.214,9.562,2.84c3.092,0.635,6.104,0.952,9.033,0.952
				c7.914,0,13.826-2.051,17.733-6.152C50.252,45.752,52.205,39.534,52.205,31.201z"/>
		</g>
	</g>
</g>
<g id="text_11">
	<g transform="translate(309.523125 296.28) scale(0.12 -0.12)">
		<g>
			<path id="DejaVuSans-61_1_" fill="#FFFFFF" d="M34.282,27.482c-7.259,0-12.288-0.83-15.096-2.482
				c-2.799-1.66-4.199-4.492-4.199-8.504c0-3.182,1.05-5.713,3.158-7.593c2.1-1.864,4.956-2.791,8.561-2.791
				c4.989,0,8.993,1.766,12.004,5.298c3.003,3.524,4.508,8.219,4.508,14.071v2.002H34.282z M52.202,31.201V0h-8.984v8.293
				c-2.051-3.312-4.606-5.754-7.666-7.34c-3.068-1.579-6.812-2.376-11.239-2.376c-5.591,0-10.042,1.579-13.354,4.72
				c-3.304,3.149-4.956,7.357-4.956,12.622c0,6.152,2.059,10.783,6.169,13.908c4.126,3.125,10.27,4.687,18.441,4.687h12.606v0.895
				c0,4.134-1.359,7.332-4.077,9.595c-2.718,2.254-6.535,3.385-11.45,3.385c-3.125,0-6.169-0.374-9.139-1.123
				c-2.962-0.749-5.802-1.872-8.537-3.377v8.317c3.288,1.27,6.47,2.214,9.562,2.84c3.101,0.635,6.112,0.952,9.033,0.952
				c7.918,0,13.826-2.051,17.733-6.152C50.249,45.752,52.202,39.534,52.202,31.201z"/>
		</g>
	</g>
</g>
<g id="text_12">
	<g transform="translate(421.123125 296.28) scale(0.12 -0.12)">
		<g>
			<path id="DejaVuSans-61_2_" fill="#FFFFFF" d="M34.287,27.482c-7.267,0-12.297-0.83-15.096-2.482
				c-2.799-1.66-4.207-4.492-4.207-8.504c0-3.182,1.058-5.713,3.158-7.593c2.108-1.864,4.964-2.791,8.561-2.791
				c4.997,0,8.993,1.766,12.004,5.298c3.011,3.524,4.517,8.219,4.517,14.071v2.002H34.287z M52.207,31.201V0h-8.984v8.293
				c-2.051-3.312-4.614-5.754-7.674-7.34c-3.06-1.579-6.803-2.376-11.23-2.376c-5.599,0-10.05,1.579-13.363,4.72
				c-3.304,3.149-4.956,7.357-4.956,12.622c0,6.152,2.059,10.783,6.177,13.908c4.126,3.125,10.27,4.687,18.433,4.687h12.614v0.895
				c0,4.134-1.359,7.332-4.077,9.595c-2.718,2.254-6.535,3.385-11.458,3.385c-3.125,0-6.169-0.374-9.139-1.123
				c-2.954-0.749-5.802-1.872-8.529-3.377v8.317c3.28,1.27,6.47,2.214,9.562,2.84c3.092,0.635,6.104,0.952,9.033,0.952
				c7.91,0,13.826-2.051,17.733-6.152C50.254,45.752,52.207,39.534,52.207,31.201z"/>
		</g>
	</g>
</g>
<g id="text_13">
	<g transform="translate(532.723125 296.28) scale(0.12 -0.12)">
		<g>
			<path id="DejaVuSans-61_3_" fill="#FFFFFF" d="M34.284,27.482c-7.259,0-12.288-0.83-15.096-2.482
				c-2.799-1.66-4.199-4.492-4.199-8.504c0-3.182,1.05-5.713,3.158-7.593c2.1-1.864,4.956-2.791,8.561-2.791
				c4.989,0,8.984,1.766,11.995,5.298c3.011,3.524,4.517,8.219,4.517,14.071v2.002H34.284z M52.204,31.201V0h-8.984v8.293
				c-2.051-3.312-4.606-5.754-7.666-7.34c-3.068-1.579-6.812-2.376-11.239-2.376c-5.591,0-10.05,1.579-13.363,4.72
				c-3.296,3.149-4.948,7.357-4.948,12.622c0,6.152,2.059,10.783,6.169,13.908c4.126,3.125,10.27,4.687,18.441,4.687h12.606v0.895
				c0,4.134-1.359,7.332-4.077,9.595c-2.718,2.254-6.535,3.385-11.45,3.385c-3.125,0-6.177-0.374-9.139-1.123
				c-2.962-0.749-5.802-1.872-8.537-3.377v8.317c3.28,1.27,6.47,2.214,9.562,2.84c3.092,0.635,6.104,0.952,9.033,0.952
				c7.918,0,13.826-2.051,17.733-6.152C50.251,45.752,52.204,39.534,52.204,31.201z"/>
		</g>
	</g>
</g>
<g id="text_14">
	<g transform="translate(361.51 318.6) scale(0.14 -0.14)">
		<g transform="translate(0 0.3125)">
			<path id="DejaVuSans-Oblique-79" fill="#FFFFFF" d="M24.812-4.767c-4.164-6.996-7.561-11.37-10.184-13.107
				c-2.623-1.744-5.971-2.609-10.031-2.609h-7.08l1.5,7.513h5.19c2.497,0,4.632,0.684,6.39,2.051
				c1.758,1.36,3.732,4.032,5.908,8.015l2.776,5.218L7.171,54.999h9.535l9.075-41.888l25.098,41.888h9.417L24.812-4.767z"/>
		</g>
		<g transform="translate(59.179688 -16.09375) scale(0.7)">
			<path id="DejaVuSans-Oblique-6e" fill="#FFFFFF" d="M98.187,7.015l-4.485-23.11h-6.32L91.86,6.778
				c0.209,1.074,0.363,2.016,0.474,2.832c0.119,0.823,0.174,1.472,0.174,1.946c0,1.918-0.607,3.411-1.814,4.471
				c-1.207,1.074-2.888,1.611-5.057,1.611c-3.376,0-6.278-1.123-8.712-3.369c-2.441-2.239-4.039-5.28-4.792-9.131l-4.199-21.233
				h-6.292l7.415,38.281h6.292l-1.263-6.013c1.751,2.204,3.857,3.913,6.313,5.12c2.462,1.207,5.057,1.814,7.764,1.814
				c3.376,0,5.992-0.914,7.847-2.734s2.79-4.388,2.79-7.687c0-0.823-0.056-1.695-0.153-2.63C98.543,9.122,98.389,8.11,98.187,7.015z
				"/>
		</g>
	</g>
</g>
</svg>
