<?xml version="1.0" encoding="utf-8"?>
<!-- Generator: Adobe Illustrator 15.1.0, SVG Export Plug-In . SVG Version: 6.00 Build 0)  -->
<!DOCTYPE svg PUBLIC "-//W3C//DTD SVG 1.1//EN" "http://www.w3.org/Graphics/SVG/1.1/DTD/svg11.dtd">
<svg version="1.1" id="Vrstva_1" xmlns="http://www.w3.org/2000/svg" xmlns:xlink="http://www.w3.org/1999/xlink" x="0px" y="0px"
	 width="281px" height="272px" viewBox="223.5 82.5 281 272" enable-background="new 223.5 82.5 281 272" xml:space="preserve">
<path fill="#FFA500" stroke="#FFA500" d="M264.383,137.004c4.1,0,8.033-1.628,10.933-4.528c2.899-2.9,4.528-6.833,4.528-10.934
	s-1.629-8.033-4.528-10.934c-2.9-2.899-6.833-4.528-10.933-4.528c-4.101,0-8.034,1.628-10.933,4.528
	c-2.9,2.9-4.528,6.833-4.528,10.934s1.628,8.033,4.528,10.934C256.349,135.376,260.282,137.004,264.383,137.004z"/>
<path fill="#FFA500" stroke="#FFA500" d="M369,137.004c4.101,0,8.033-1.628,10.934-4.528c2.899-2.9,4.528-6.833,4.528-10.934
	s-1.629-8.033-4.528-10.934c-2.9-2.899-6.833-4.528-10.934-4.528s-8.033,1.628-10.934,4.528c-2.899,2.9-4.528,6.833-4.528,10.934
	s1.628,8.033,4.528,10.934C360.967,135.376,364.899,137.004,369,137.004z"/>
<path fill="#FFA500" stroke="#FFA500" d="M461.617,137.004c4.101,0,8.034-1.628,10.934-4.528c2.899-2.9,4.528-6.833,4.528-10.934
	s-1.629-8.033-4.528-10.934c-2.899-2.899-6.833-4.528-10.934-4.528s-8.033,1.628-10.933,4.528c-2.9,2.9-4.529,6.833-4.529,10.934
	s1.629,8.033,4.529,10.934C453.584,135.376,457.517,137.004,461.617,137.004z"/>
<path fill="#FFA500" stroke="#FFA500" d="M264.383,233.622c4.1,0,8.033-1.629,10.933-4.528c2.899-2.9,4.528-6.833,4.528-10.934
	c0-4.1-1.629-8.033-4.528-10.932c-2.9-2.901-6.833-4.529-10.933-4.529c-4.101,0-8.034,1.628-10.933,4.529
	c-2.9,2.899-4.528,6.832-4.528,10.932c0,4.101,1.628,8.033,4.528,10.934C256.349,231.993,260.282,233.622,264.383,233.622z"/>
<path fill="#FFA500" stroke="#FFA500" d="M461.617,233.622c4.101,0,8.034-1.629,10.934-4.528c2.899-2.9,4.528-6.833,4.528-10.934
	c0-4.1-1.629-8.033-4.528-10.932c-2.899-2.901-6.833-4.529-10.934-4.529s-8.033,1.628-10.933,4.529
	c-2.9,2.899-4.529,6.832-4.529,10.932c0,4.101,1.629,8.033,4.529,10.934C453.584,231.993,457.517,233.622,461.617,233.622z"/>
<path fill="#FFA500" stroke="#FFA500" d="M369,233.622c4.101,0,8.034-1.629,10.934-4.528c2.899-2.9,4.528-6.833,4.528-10.934
	c0-4.1-1.629-8.033-4.528-10.932c-2.899-2.901-6.833-4.529-10.934-4.529s-8.033,1.628-10.933,4.529
	c-2.9,2.899-4.529,6.832-4.529,10.932c0,4.101,1.629,8.033,4.529,10.934C360.967,231.993,364.899,233.622,369,233.622z"/>
<path fill="#FFA500" stroke="#FFA500" d="M264.383,327.239c4.1,0,8.033-1.629,10.933-4.528c2.899-2.899,4.528-6.833,4.528-10.934
	s-1.629-8.033-4.528-10.933c-2.9-2.9-6.833-4.529-10.933-4.529c-4.101,0-8.034,1.629-10.933,4.529
	c-2.9,2.899-4.528,6.832-4.528,10.933s1.628,8.034,4.528,10.934C256.349,325.61,260.282,327.239,264.383,327.239z"/>
<path fill="#FFA500" stroke="#FFA500" d="M369,327.239c4.101,0,8.033-1.629,10.934-4.528c2.899-2.899,4.528-6.833,4.528-10.934
	s-1.629-8.033-4.528-10.933c-2.9-2.9-6.833-4.529-10.934-4.529s-8.033,1.629-10.934,4.529c-2.899,2.899-4.528,6.832-4.528,10.933
	s1.628,8.034,4.528,10.934C360.967,325.61,364.899,327.239,369,327.239z"/>
<path fill="#FFA500" stroke="#FFA500" d="M461.617,327.239c4.101,0,8.034-1.629,10.934-4.528s4.528-6.833,4.528-10.934
	s-1.629-8.033-4.528-10.933c-2.899-2.9-6.833-4.529-10.934-4.529s-8.033,1.629-10.933,4.529c-2.9,2.899-4.529,6.832-4.529,10.933
	s1.629,8.034,4.529,10.934C453.584,325.61,457.517,327.239,461.617,327.239z"/>
<g id="patch_10">
	<path fill="#FFFFFF" stroke="#FFFFFF" stroke-width="5" stroke-miterlimit="10" d="M439.868,218.16c-47.241,0-94.49,0-141.732,0"/>
	<path fill="#FFFFFF" stroke="#FFFFFF" stroke-width="5" stroke-miterlimit="10" d="M401.606,201.153l38.262,17.007l-38.262,17.009"
		/>
	<path fill="#FFFFFF" stroke="#FFFFFF" stroke-width="5" stroke-miterlimit="10" d="M336.402,235.169l-38.266-17.009l38.266-17.007"
		/>
</g>
</svg>
